<?xml version="1.0" encoding="UTF-8" standalone="no"?><!-- Generator: Gravit.io --><svg xmlns="http://www.w3.org/2000/svg" xmlns:xlink="http://www.w3.org/1999/xlink" style="isolation:isolate" viewBox="0 0 202.363 99.457" width="202.363pt" height="99.457pt"><defs><clipPath id="_clipPath_dTCouV2VU8cVdyvH628sZmcmEtdXOH1O"><rect width="202.363" height="99.457"/></clipPath></defs><g clip-path="url(#_clipPath_dTCouV2VU8cVdyvH628sZmcmEtdXOH1O)"><path d=" M 10.383 46.416 L 0 46.395 L 3.731 29.019 L 10.383 29.032 L 10.383 27.418 C 10.383 22.608 11.163 18.504 12.673 15.086 C 14.216 11.595 16.359 8.75 19.139 6.559 C 22.016 4.29 25.421 2.612 29.375 1.574 C 33.413 0.513 37.807 0 42.688 0 L 47.711 19.444 L 41.621 19.312 C 37.754 19.227 34.857 20.129 32.986 21.834 C 31.169 23.492 30.288 26.124 30.288 29.23 L 41.749 29.019 L 41.749 46.395 L 30.288 46.395 L 30.288 95.972 L 10.383 98.221 L 10.383 46.416 L 10.383 46.416 L 10.383 46.416 L 10.383 46.416 Z  M 73.194 2.554 L 73.257 96.028 L 53.087 98.56 L 53.087 4.812 L 73.194 2.554 L 73.194 2.554 L 73.194 2.554 Z  M 107.425 65.269 C 112.884 65.269 117.175 68.867 117.175 74.176 C 117.175 79.484 113.165 83.082 107.425 83.082 C 101.686 83.082 97.675 79.454 97.675 74.176 C 97.675 68.897 101.967 65.269 107.425 65.269 L 107.425 65.269 L 107.425 65.269 L 107.425 65.269 Z  M 117.561 92.435 C 113.87 96.861 108.515 99.414 101.894 99.457 C 88.717 99.543 78.613 89.734 78.613 75.551 C 78.613 61.367 87.992 51.558 101.894 51.644 L 101.894 51.644 C 108.862 51.687 114.207 53.647 117.806 57.473 L 117.832 53.751 C 117.832 50.621 116.779 48.127 114.675 46.268 C 112.671 44.41 109.483 43.481 104.904 43.481 C 101.444 43.481 97.928 44.042 95.168 44.797 C 92.407 45.458 90.157 46.213 88.419 47.063 L 91.434 28.88 C 92.711 28.357 94.946 27.768 98.138 27.114 C 101.33 26.46 105.343 26.133 110.314 26.133 C 117.638 26.133 124.733 28.291 129.446 32.534 C 135.015 37.548 136.262 41.089 136.301 50.947 C 136.36 66.024 135.001 96.729 135.001 96.729 L 117.519 98.406 L 117.561 92.435 L 117.561 92.435 L 117.561 92.435 Z  M 178.082 26.019 C 158.087 26.019 142.332 40.937 142.332 62.707 C 142.332 84.476 157.056 99.426 178.082 99.426 C 187.806 99.426 196.168 96.251 202.363 90.676 L 191.613 75.426 C 188.671 78.585 184.497 80.426 179.55 80.426 C 169.742 80.426 162.3 72.277 162.3 62.707 C 162.3 52.209 170.223 45.019 179.55 45.019 C 184.149 45.019 188.25 46.746 191.238 49.769 L 201.8 34.644 C 195.523 29.155 187.259 26.019 178.082 26.019 Z " fill-rule="evenodd" fill="#ffffff"/></g></svg>
