<?xml version="1.0" encoding="UTF-8" standalone="no"?><!-- Generator: Gravit.io --><svg xmlns="http://www.w3.org/2000/svg" xmlns:xlink="http://www.w3.org/1999/xlink" style="isolation:isolate" viewBox="0 0 917 463" width="917pt" height="463pt"><defs><clipPath id="_clipPath_ymi3fab51cglz4wWN3Pub5nndULgUdeq"><rect width="917" height="463"/></clipPath></defs><g clip-path="url(#_clipPath_ymi3fab51cglz4wWN3Pub5nndULgUdeq)"><path d=" M 196 459.915 C 186.375 459.518 174.675 458.675 170 458.041 C 135.572 453.372 99.95 438.028 72.921 416.226 C 68.752 412.863 60.187 404.766 53.887 398.232 C 25.701 368.997 7.647 330.944 2.985 290.944 C 1.429 277.592 2.197 245.137 4.389 231.614 C 11.408 188.319 29.791 146.612 56.67 113 C 104.681 52.962 184.458 11.223 266.856 3.03 C 339.898 -4.233 406.927 24.145 442.277 77.299 C 451.743 91.531 462.665 115.33 461.465 119.109 C 460.247 122.949 457.253 121.282 455.436 115.75 C 449.261 96.955 436.296 76.309 421.375 61.506 C 402.509 42.79 372.71 27.712 343.338 22.018 C 306.911 14.956 269.861 17.714 227 30.678 C 178.294 45.41 138.381 68.608 106 101.005 C 71.499 135.524 50.423 175.936 41.335 225 C 38.783 238.776 38.766 276.096 41.306 287.875 C 47.645 317.274 60.516 340.664 81.417 360.766 C 103.458 381.963 132.002 396.479 164.621 403.079 C 178.04 405.794 211.487 406.87 226.733 405.078 C 269.34 400.067 304.228 383.822 328.805 357.55 C 342.075 343.364 348.536 332.093 361.797 300 C 366.228 289.275 374.213 270.6 379.542 258.5 C 401.129 209.477 400.967 209.967 396.992 205.992 C 395.08 204.08 394.039 203.835 389.895 204.326 C 381.722 205.294 374.8 211.493 369.045 223 C 367.532 226.025 356.926 249.538 345.476 275.25 L 324.658 322 L 287.329 322 C 252.446 322 250 321.885 249.995 320.25 C 249.992 319.288 260.342 295.288 272.995 266.917 C 292.402 223.4 296 214.6 296 210.642 C 296 206.448 295.709 205.838 293.25 204.89 C 286.231 202.184 277.297 206.629 270.921 216 C 268.863 219.025 257.253 243.738 245.121 270.918 C 232.989 298.098 222.712 320.667 222.282 321.072 C 221.852 321.476 205.124 321.963 185.11 322.153 C 153.582 322.454 148.597 322.3 147.806 321 C 146.97 319.626 161.867 285.322 205.024 189.238 L 212.329 172.975 L 248.401 173.238 C 283.582 173.494 284.482 173.549 284.834 175.5 C 285.455 178.95 286.493 179.114 292.073 176.649 C 303.402 171.643 314.375 169.556 329.5 169.531 C 341.185 169.512 344.66 169.872 350.514 171.711 C 358.592 174.248 365.659 178.632 368.413 182.813 L 370.326 185.717 L 378.413 181.932 C 405.69 169.163 436.699 165.677 456.638 173.138 C 463.826 175.827 472.319 183.664 474.682 189.788 C 477.331 196.652 476.95 207.523 473.73 217 C 467.567 235.138 427.4 322.439 415.177 344.261 C 385.77 396.764 352.918 427.796 308.061 445.442 C 289.223 452.852 261.847 458.457 239.255 459.529 C 217.02 460.583 213.07 460.618 196 459.915 Z  M 424.504 399.006 C 424.166 398.459 432.279 379.222 442.534 356.256 C 478.154 276.481 484.048 263.253 503.92 218.5 L 523.901 173.5 L 563.2 173.5 L 602.5 173.5 L 602.816 176.25 C 603.203 179.609 603.412 179.616 610.219 176.5 C 620.974 171.576 630.361 169.739 645 169.695 C 675.6 169.601 693.512 178.706 699.132 197.21 C 708.111 226.771 680.935 281.021 645.259 304.753 C 624.679 318.443 605.633 324.558 580 325.704 C 565.913 326.333 559.18 325.12 548.607 320.045 C 545.268 318.442 542.456 317.214 542.36 317.316 C 542.263 317.417 534.665 334.375 525.476 355 C 516.287 375.625 507.912 394.188 506.864 396.25 L 504.959 400 L 465.039 400 C 439.667 400 424.894 399.638 424.504 399.006 Z  M 578.472 295.576 C 589.368 291.024 603.041 270.545 615.479 240.149 C 621.611 225.164 624.274 214.123 623.803 205.641 C 623.509 200.343 622.989 198.465 621.52 197.391 C 614.508 192.264 599.854 202.066 588.464 219.5 C 578.726 234.406 566.85 260.65 563.477 274.715 C 561.398 283.382 561.83 292.05 564.486 294.985 C 566.696 297.427 573.367 297.709 578.472 295.576 Z  M 730.854 324.478 C 717.485 322.654 710.041 320.497 699.06 315.267 C 691.571 311.7 688.085 309.265 682.193 303.487 C 678.108 299.48 674.931 295.727 675.133 295.146 C 675.761 293.339 712.981 265.999 714.789 266.017 C 715.73 266.026 719.425 267.109 723 268.423 C 728.649 270.5 729.469 271.12 729.266 273.156 C 727.882 286.988 727.827 291.169 728.992 293.981 C 731.991 301.22 742.678 304.273 755.716 301.615 C 767.778 299.155 775.158 294.99 785.028 285.071 C 797.7 272.336 804.605 257.844 803.827 245.616 C 803.346 238.074 800.818 234.058 794.677 231.086 C 790.821 229.219 788.561 229 773.153 229 C 758.541 229 755.847 228.766 755.344 227.453 C 754.814 226.073 761.949 208.402 764.309 205.25 C 764.964 204.375 768.744 204 776.912 204 C 790.3 204 797.018 202.579 807.901 197.446 C 823.205 190.228 837.487 171.883 840.218 155.935 C 841.182 150.311 841.093 148.998 839.524 145.692 C 837.056 140.491 831.938 138 823.721 138 C 812.84 138 802.134 142.07 794.496 149.111 C 789.308 153.893 786.765 158.812 786.04 165.467 L 785.5 170.433 L 776.5 173.225 C 771.55 174.76 766.991 175.822 766.369 175.585 C 764.967 175.051 748 148.056 748 146.359 C 748 144.788 762.258 135.337 771.879 130.531 C 796.494 118.235 831.933 111.763 862.134 114.049 C 895.195 116.552 913.183 127.947 914.742 147.379 C 916.734 172.194 895.167 196.513 860.5 208.54 C 856.1 210.067 852.121 211.646 851.658 212.05 C 851.195 212.454 853.633 214.286 857.076 216.121 C 877.077 226.781 882.954 244.992 873.416 266.743 C 866.284 283.005 849.864 298.908 829.612 309.166 C 820.42 313.822 801.739 320.216 791 322.382 C 771.994 326.215 749.365 327.003 730.854 324.478 Z " fill="#4C4746"/></g></svg>
