<?xml version="1.0" encoding="UTF-8" standalone="no"?><!-- Generator: Gravit.io --><svg xmlns="http://www.w3.org/2000/svg" xmlns:xlink="http://www.w3.org/1999/xlink" style="isolation:isolate" viewBox="0 0 39.961 39.961" width="39.961pt" height="39.961pt"><defs><clipPath id="_clipPath_7QjtP7KBAoPfsSnPGcCAmKJxBSUsWHO3"><rect width="39.961" height="39.961"/></clipPath></defs><g clip-path="url(#_clipPath_7QjtP7KBAoPfsSnPGcCAmKJxBSUsWHO3)"><path d=" M 0 19.981 C 0 8.953 8.953 0 19.981 0 C 31.008 0 39.961 8.953 39.961 19.981 C 39.961 31.008 31.008 39.961 19.981 39.961 C 8.953 39.961 0 31.008 0 19.981 Z  M 15.089 28.897 L 15.089 28.897 L 10.274 28.897 L 10.274 28.897 Q 10.045 28.897 9.879 28.732 L 9.879 28.732 L 9.879 28.732 Q 9.714 28.566 9.714 28.413 L 9.714 28.413 L 9.714 28.413 Q 9.714 28.26 9.739 28.184 L 9.739 28.184 L 15.293 11.905 L 15.293 11.905 Q 15.522 11.064 16.439 11.064 L 16.439 11.064 L 23.522 11.064 L 23.522 11.064 Q 24.439 11.064 24.668 11.905 L 24.668 11.905 L 30.222 28.184 L 30.222 28.184 Q 30.248 28.26 30.248 28.413 L 30.248 28.413 L 30.248 28.413 Q 30.248 28.566 30.082 28.732 L 30.082 28.732 L 30.082 28.732 Q 29.916 28.897 29.687 28.897 L 29.687 28.897 L 24.872 28.897 L 24.872 28.897 Q 24.057 28.897 23.726 28.031 L 23.726 28.031 Q 20.444 17.551 19.981 15.981 Q 19.516 17.591 16.236 28.031 L 16.236 28.031 Q 15.904 28.897 15.089 28.897 L 15.089 28.897 Z " fill-rule="evenodd" fill="rgb(255,255,255)"/></g></svg>